<svg width="28" height="28" xmlns="http://www.w3.org/2000/svg" xmlns:xlink="http://www.w3.org/1999/xlink" xml:space="preserve" overflow="hidden"><g transform="translate(-914 -299)"><path d="M930.188 309.208 925.521 309.208 925.521 316.208 921.875 316.208 927.854 323.208 933.833 316.208 930.188 316.208Z"/><path d="M937.508 310.054C937.275 308.625 936.487 307.342 935.321 306.496 934.125 305.65 932.608 305.329 931.15 305.621 929.721 303.433 927.067 302.354 924.529 302.967 922.05 303.608 920.183 305.679 919.804 308.217 918.171 308.275 916.625 309.062 915.633 310.375 914.467 312.008 914.263 314.138 915.079 315.975 915.925 317.783 917.675 318.979 919.658 319.096L921.787 319.096 921 318.133 920.271 317.288 919.746 317.288C918.433 317.2 917.267 316.413 916.683 315.217 916.129 313.992 916.275 312.592 917.062 311.483 917.85 310.404 919.162 309.879 920.504 310.083L921.525 310.258 921.525 309.121C921.525 307.05 922.925 305.242 924.938 304.746 926.95 304.25 929.021 305.242 929.954 307.079L930.304 307.779 931.033 307.517C932.142 307.138 933.338 307.312 934.3 307.983 935.233 308.683 935.787 309.763 935.817 310.929L935.817 311.833 937.013 311.833C938.5 311.892 939.667 313.117 939.638 314.575 939.638 316.062 938.442 317.258 936.983 317.288L935.467 317.288 934.708 318.133 933.892 319.125 936.983 319.125C939.346 319.067 941.271 317.2 941.417 314.837 941.562 312.475 939.842 310.404 937.508 310.054Z"/></g></svg>