<svg width="19" height="19" xmlns="http://www.w3.org/2000/svg" xmlns:xlink="http://www.w3.org/1999/xlink" xml:space="preserve" overflow="hidden"><g transform="translate(-298 -7)"><path d="M315.879 19.9497 314.808 19.5701 314.808 17.7843 315.669 17.4203C315.77 17.3778 315.817 17.2617 315.774 17.161 315.748 17.0984 315.691 17.0538 315.624 17.0427L314.212 16.8093 314.212 15.0592 315.887 14.3823C315.988 14.3414 316.037 14.226 315.996 14.1247 315.975 14.0721 315.932 14.0311 315.879 14.0122L314.808 13.6326 314.808 11.8468 315.669 11.4828C315.769 11.4402 315.817 11.3241 315.774 11.2234 315.753 11.1731 315.712 11.1338 315.66 11.1149L309.018 8.6625C308.975 8.64669 308.929 8.64613 308.885 8.66092L299.92 11.7876C299.901 11.794 299.883 11.8032 299.868 11.8149 299.842 11.8347 299.241 12.2919 299.241 13.6965 299.239 14.0164 299.275 14.3355 299.35 14.6465 299.117 14.8444 298.647 15.3788 298.647 16.4673 298.643 17.2507 298.894 18.0141 299.362 18.6424 299.278 18.9661 299.237 19.2996 299.241 19.634 299.241 21.0269 299.853 21.5934 299.879 21.6165 299.897 21.6324 299.917 21.6449 299.939 21.6536L306.272 24.1457C306.295 24.1547 306.32 24.1594 306.345 24.1594 306.37 24.1594 306.395 24.1545 306.419 24.1449L315.887 20.3198C315.988 20.2789 316.037 20.1635 315.996 20.0622 315.975 20.0096 315.932 19.9686 315.879 19.9497ZM313.816 16.8424 306.336 19.8226 300.071 17.3562 300.071 15.7707 306.273 18.2082C306.32 18.227 306.372 18.227 306.42 18.2082L313.815 15.2197ZM306.345 23.7483 300.124 21.3009C300.028 21.1932 299.637 20.6923 299.637 19.634 299.631 19.3035 299.676 18.9742 299.77 18.6573 299.792 18.59 299.776 18.5164 299.728 18.4641 299.279 17.8959 299.037 17.191 299.043 16.4666 299.043 15.2899 299.652 14.9089 299.677 14.8941 299.756 14.8482 299.793 14.754 299.767 14.6663 299.678 14.3509 299.634 14.0243 299.638 13.6965 299.638 12.6442 300.004 12.2292 300.087 12.1488L308.948 9.05833 315.049 11.3114C315.052 11.3114 315.052 11.3142 315.049 11.3152L306.345 14.8421 300.539 12.5569C300.438 12.5169 300.323 12.5669 300.283 12.6686 300.274 12.6917 300.269 12.7163 300.269 12.7412L300.269 14.7203C300.269 14.8016 300.319 14.8746 300.394 14.9044L306.273 17.2186C306.32 17.2374 306.372 17.2374 306.42 17.2186L314.519 13.9451 315.25 14.2089C315.252 14.2099 315.252 14.2115 315.25 14.2127L306.345 17.8108 299.946 15.2961C299.844 15.2561 299.729 15.3061 299.689 15.4078 299.68 15.4309 299.675 15.4555 299.675 15.4803L299.675 17.4912C299.675 17.5724 299.725 17.6454 299.801 17.6752L306.264 20.2196C306.311 20.2382 306.363 20.2382 306.41 20.2196L314.036 17.1816 314.878 17.3202C314.882 17.3202 314.882 17.3225 314.878 17.3239L306.345 20.7796 300.539 18.4944C300.438 18.4544 300.323 18.5044 300.283 18.6062 300.274 18.6292 300.269 18.6538 300.269 18.6787L300.269 20.6578C300.269 20.7391 300.319 20.8121 300.394 20.8419L306.273 23.1561C306.32 23.1749 306.372 23.1749 306.42 23.1561L314.519 19.8826 315.25 20.1464C315.252 20.1464 315.252 20.149 315.25 20.1502ZM314.413 13.5613 306.345 16.8212 300.665 14.5848 300.665 13.0311 306.273 15.2395C306.32 15.2583 306.372 15.2583 306.42 15.2395L314.413 12.0091ZM314.413 19.4988 306.345 22.7587 300.665 20.5223 300.665 18.9686 306.273 21.177C306.32 21.1958 306.372 21.1958 306.42 21.177L314.413 17.9466Z" fill="#FFFFFF"/></g></svg>