<svg width="27" height="28" xmlns="http://www.w3.org/2000/svg" xmlns:xlink="http://www.w3.org/1999/xlink" xml:space="preserve" overflow="hidden"><g transform="translate(-437 -275)"><path d="M15.6094 9.84375 11.1094 9.84375 11.1094 16.5938 7.59375 16.5938 13.3594 23.3438 19.125 16.5938 15.6094 16.5938Z" transform="matrix(1 0 0 1.03704 437 275)"/><path d="M22.6687 10.6594C22.4438 9.28125 21.6844 8.04375 20.5594 7.22813 19.4062 6.4125 17.9438 6.10313 16.5375 6.38438 15.1594 4.275 12.6 3.23438 10.1531 3.825 7.7625 4.44375 5.9625 6.44062 5.59687 8.8875 4.02187 8.94375 2.53125 9.70312 1.575 10.9688 0.45 12.5437 0.253125 14.5969 1.04062 16.3687 1.85625 18.1125 3.54375 19.2656 5.45625 19.3781L7.50938 19.3781 6.75 18.45 6.04688 17.6344 5.54063 17.6344C4.275 17.55 3.15 16.7906 2.5875 15.6375 2.05313 14.4563 2.19375 13.1062 2.95312 12.0375 3.7125 10.9969 4.97813 10.4906 6.27187 10.6875L7.25625 10.8562 7.25625 9.75938C7.25625 7.7625 8.60625 6.01875 10.5469 5.54063 12.4875 5.0625 14.4844 6.01875 15.3844 7.79063L15.7219 8.46562 16.425 8.2125C17.4937 7.84687 18.6469 8.01562 19.575 8.6625 20.475 9.3375 21.0094 10.3781 21.0375 11.5031L21.0375 12.375 22.1906 12.375C23.625 12.4313 24.75 13.6125 24.7219 15.0188 24.7219 16.4531 23.5688 17.6062 22.1625 17.6344L20.7 17.6344 19.9688 18.45 19.1812 19.4062 22.1625 19.4062C24.4406 19.35 26.2969 17.55 26.4375 15.2719 26.5781 12.9938 24.9187 10.9969 22.6687 10.6594Z" transform="matrix(1 0 0 1.03704 437 275)"/></g></svg>