<svg width="22" height="22" xmlns="http://www.w3.org/2000/svg" xmlns:xlink="http://www.w3.org/1999/xlink" xml:space="preserve" overflow="hidden"><g transform="translate(-732 -503)"><path d="M744.719 511.021 741.052 511.021 741.052 516.521 738.188 516.521 742.885 522.021 747.583 516.521 744.719 516.521Z" fill="#FFFFFF"/><path d="M750.471 511.685C750.287 510.562 749.669 509.554 748.752 508.89 747.812 508.225 746.621 507.973 745.475 508.202 744.352 506.483 742.267 505.635 740.273 506.117 738.325 506.621 736.858 508.248 736.56 510.242 735.277 510.288 734.062 510.906 733.283 511.938 732.367 513.221 732.206 514.894 732.848 516.338 733.513 517.758 734.888 518.698 736.446 518.79L738.119 518.79 737.5 518.033 736.927 517.369 736.515 517.369C735.483 517.3 734.567 516.681 734.108 515.742 733.673 514.779 733.787 513.679 734.406 512.808 735.025 511.96 736.056 511.548 737.11 511.708L737.912 511.846 737.912 510.952C737.912 509.325 739.013 507.904 740.594 507.515 742.175 507.125 743.802 507.904 744.535 509.348L744.81 509.898 745.383 509.692C746.254 509.394 747.194 509.531 747.95 510.058 748.683 510.608 749.119 511.456 749.142 512.373L749.142 513.083 750.081 513.083C751.25 513.129 752.167 514.092 752.144 515.237 752.144 516.406 751.204 517.346 750.058 517.369L748.867 517.369 748.271 518.033 747.629 518.812 750.058 518.812C751.915 518.767 753.427 517.3 753.542 515.444 753.656 513.588 752.304 511.96 750.471 511.685Z" fill="#FFFFFF"/></g></svg>