<svg width="23" height="23" xmlns="http://www.w3.org/2000/svg" xmlns:xlink="http://www.w3.org/1999/xlink" xml:space="preserve" overflow="hidden"><g transform="translate(-32 -420)"><path d="M43.5 422.396C38.4688 422.396 34.3958 426.469 34.3958 431.5 34.3958 436.531 38.4688 440.604 43.5 440.604 48.5312 440.604 52.6042 436.531 52.6042 431.5 52.6042 426.469 48.5312 422.396 43.5 422.396ZM43.0208 424.792C43.6917 424.792 44.2188 425.319 44.2188 425.99 44.2188 426.66 43.6917 427.188 43.0208 427.188 42.35 427.188 41.8229 426.66 41.8229 425.99 41.8229 425.319 42.35 424.792 43.0208 424.792ZM45.8958 438.208 41.1042 438.208 41.1042 436.771 42.7812 436.771 42.7812 429.583 41.3438 429.583 41.3438 428.146 44.2188 428.146 44.2188 429.583 44.2188 436.771 45.8958 436.771 45.8958 438.208Z" fill="#FFFFFF"/></g></svg>