<svg width="21" height="21" xmlns="http://www.w3.org/2000/svg" xmlns:xlink="http://www.w3.org/1999/xlink" xml:space="preserve" overflow="hidden"><g transform="translate(-819 -505)"><path d="M826.438 510.25 827.75 510.25 827.75 513.531 826.438 513.531Z" fill="#FFFFFF"/><path d="M833.438 514.406 825.562 514.406 825.562 509.375 833.438 509.375 833.438 514.406ZM829.5 520.094C828.297 520.094 827.312 519.109 827.312 517.906 827.312 516.703 828.297 515.719 829.5 515.719 830.703 515.719 831.688 516.703 831.688 517.906 831.688 519.109 830.703 520.094 829.5 520.094ZM836.062 508.062 833.438 508.062 825.562 508.062 824.25 508.062 822.062 510.25 822.062 522.062C822.062 522.544 822.456 522.938 822.938 522.938L836.062 522.938C836.544 522.938 836.938 522.544 836.938 522.062L836.938 508.938C836.938 508.456 836.544 508.062 836.062 508.062Z" fill="#FFFFFF"/><path d="M828.844 517.25 830.156 517.25 830.156 518.562 828.844 518.562Z" fill="#FFFFFF"/></g></svg>